PathFileType	4	(X/Y/Z)	pose_F01_0-95.trc
DataRate	CameraRate	NumFrames	NumMarkers	Units	OrigDataRate	OrigDataStartFrame	OrigNumFrames
30	30	9	21	m	30	11	95
Frame#	Time	CHip			RHip			RKnee			RAnkle			RBigToe			RSmallToe			RHeel			LHip			LKnee			LAnkle			LBigToe			LSmallToe			LHeel			Neck			Nose			RShoulder			RElbow			RWrist			LShoulder			LElbow			LWrist			
		X1	Y1	Z1	X2	Y2	Z2	X3	Y3	Z3	X4	Y4	Z4	X5	Y5	Z5	X6	Y6	Z6	X7	Y7	Z7	X8	Y8	Z8	X9	Y9	Z9	X10	Y10	Z10	X11	Y11	Z11	X12	Y12	Z12	X13	Y13	Z13	X14	Y14	Z14	X15	Y15	Z15	X16	Y16	Z16	X17	Y17	Z17	X18	Y18	Z18	X19	Y19	Z19	X20	Y20	Z20	X21	Y21	Z21	
11	0.36666666666666664	-0.2070243736243395	1.8349078349004415	-0.3653147335456873	-0.2123134079638032	1.8333891830170048	-0.3076688020845869	-0.20488260065552996	1.718087674947407	-0.3118781946999693	-0.20466106271743453	1.6076322585327871	-0.3311779151391277	-0.2126472907110913	1.5704566808915228	-0.4250081109274011	-0.2037326485663693	1.5766733873679302	-0.4077824586540383	-0.1936259757401356	1.5997208971214527	-0.3146676327356893	-0.20183799907407474	1.8364855989833038	-0.4261154479074669	-0.1917725971291599	1.7199480732634709	-0.4071222906143123	-0.19385604594280326	1.5999776330948485	-0.3847426709537415	-0.22152535512867494	1.5711816104092378	-0.40169613566253226	-0.21115993200251662	1.5716854576937955	-0.385901315177186	-0.1882920557158084	1.5944859054451856	-0.3814622785941667	-0.19370377002317107	1.9823958536308661	-0.4099628123344819	-0.2131391613415269	2.042729230901292	-0.3904061014023932	-2.202759777724911	1.919912152888619	2.06353952391499	-0.2084366765032581	1.9046381265835493	-0.2733530554709947	-0.216576993647593	1.833918645424718	-0.23558452726151302	-0.1864991665427505	1.9853270011103845	-0.5012985859371463	-0.18626365852928628	1.9049494828053246	-0.5070822874927942	-0.19587811274863978	1.835387946025858	-0.48632733447571214
12	0.4	-0.20761422310261143	1.8345248275176251	-0.35969763047600994	-0.21102066844753017	1.8331462439700603	-0.30410318211045884	-0.2025449741220887	1.7193579570926678	-0.3054874105146647	-0.20466106271743453	1.6076322585327871	-0.3311779151391277	-0.2126472907110913	1.5704566808915228	-0.4250081109274011	-0.2037326485663693	1.5766733873679302	-0.4077824586540383	-0.1936259757401356	1.5997208971214527	-0.3146676327356893	-0.20258683493748195	1.8362214911013175	-0.420454220068521	-0.1909510324852235	1.7210978428312427	-0.40363408824938046	-0.19357156450951934	1.601385880007363	-0.38526695955906637	-0.22152535512867494	1.5711816104092378	-0.40169613566253226	-0.21091954452129186	1.5712778671043437	-0.3855858809061824	-0.18843055873666528	1.5957042800239123	-0.38122470147369714	-0.19454119870507697	1.9822301216216875	-0.4046894993429464	-0.21217856710639718	2.0411788525511065	-0.3866740622512053	-0.20333936752099316	1.978373179999697	-0.31707554174087454	-0.20793192810268202	1.90398159446018	-0.26413503123228976	-0.2160804534298127	1.833068494324806	-0.23523688247530655	-0.18556723705247488	1.9837854504183856	-0.4976337975691947	-0.18627186802499857	1.904968513928063	-0.5069411880979421	-0.1980223744961674	1.8341919533196984	-0.48388005391270267
13	0.43333333333333335	-0.20769869689879586	1.8359043820764605	-0.35979574197846936	-0.21283859696081173	1.8344670157764928	-0.30214286873922747	-0.20066509594247234	1.7186189214502412	-0.3075571478575165	-0.20466106271743453	1.6076322585327871	-0.3311779151391277	-0.2126472907110913	1.5704566808915228	-0.4250081109274011	-0.2037326485663693	1.5766733873679302	-0.4077824586540383	-0.1936259757401356	1.5997208971214527	-0.3146676327356893	-0.20158393725655424	1.836128157084033	-0.4171287991915767	-0.19054650669990839	1.717872679494489	-0.40353318593383886	-0.19230947045848704	1.59972800948405	-0.38215475873836113	-0.22152535512867494	1.5711816104092378	-0.40169613566253226	-0.20887526217218821	1.5729930973406099	-0.38824317839210154	-0.18803655627343674	1.5931578253345289	-0.38156408118684043	-0.19454690614549222	1.9824059901630873	-0.404430575640619	-0.21214463082387636	2.041271507004848	-0.3865701706406711	-2.2118896885562824	1.9197926902137152	2.082678225530122	-0.20958159178248523	1.9025259326499517	-0.2615341411306823	-0.21675387112344885	1.8329563206542436	-0.22979889411944815	-0.18573771929232696	1.984865770114171	-0.48946304911453425	-0.18738825033581946	1.9037342333687728	-0.5014421861486157	-0.19723400515018757	1.835548972603508	-0.4808690274525767
14	0.4666666666666667	-0.20770840929536938	1.8359548628960694	-0.359756758642939	-0.21269693785056082	1.835662229741331	-0.3023639614411614	-0.20224409470270965	1.7191279496064868	-0.3056613152843543	-0.20466106271743453	1.6076322585327871	-0.3311779151391277	-0.2126472907110913	1.5704566808915228	-0.4250081109274011	-0.2037326485663693	1.5766733873679302	-0.4077824586540383	-0.1936259757401356	1.5997208971214527	-0.3146676327356893	-0.2007520761933982	1.8374695047208207	-0.41407593957084715	-0.19258603174917346	1.71877828301877	-0.4012620127582671	-0.193579704858727	1.598296329934362	-0.3848591661897232	-0.22152535512867494	1.5711816104092378	-0.40169613566253226	-0.21102080308252635	1.571392158397385	-0.3856343064212571	-0.18826875515797034	1.5942792323396882	-0.38138998756450865	-0.19541368834024256	1.982357786408215	-0.39914157464910127	-0.21401176046513123	2.0399216508633993	-0.38441214467112583	-2.2107156747091024	1.9201108371168727	2.0813648584916713	-0.20852691297445813	1.9049561940161948	-0.25872855223959207	-0.21773478564866622	1.8340804238908606	-0.23334842184727855	-0.18586438339580125	1.9837954992398383	-0.4893356969746507	-0.18921644081218103	1.9033486309413956	-0.4989037780375696	-0.19911749303909626	1.83409695235506	-0.47843845599120094
15	0.5	-0.20661348538061425	1.8344468147875002	-0.356014907478955	-0.21049822191812567	1.8341205102667668	-0.2952245704024896	-0.20381250656189162	1.7145857890724046	-0.3030852753378166	-0.20466106271743453	1.6076322585327871	-0.3311779151391277	-0.2126472907110913	1.5704566808915228	-0.4250081109274011	-0.2037326485663693	1.5766733873679302	-0.4077824586540383	-0.1936259757401356	1.5997208971214527	-0.3146676327356893	-0.2014947297055109	1.8358653253561672	-0.40825381352447543	-0.19346599301807213	1.718327567110818	-0.39579186591345034	-0.19361602887469964	1.6013498571648128	-0.3851886334453056	-0.22152535512867494	1.5711816104092378	-0.40169613566253226	-0.21108378775395115	1.5719658034881787	-0.3856849474994203	-0.18832817448606304	1.5949271158601943	-0.38144212151491264	-0.1955335434894378	1.9813695879711501	-0.3988308968171695	-0.2130664337283972	2.0397873662407204	-0.38120040979974706	-0.20411335081555754	1.977972707260846	-0.3115144592660185	-0.21025231556523727	1.9023978841107412	-0.2558775294733125	-0.2184551284490187	1.83522106304237	-0.22798975533963722	-0.1867952400383262	1.9846993770942236	-0.4838199444436679	-0.19049537105257203	1.903593945256845	-0.49358242432395233	-0.198315757167839	1.8354763553169877	-0.47527277291102105
16	0.5333333333333333	-0.20698471970185026	1.8378185444569863	-0.35129971371530777	-0.21022203749185908	1.836517981080205	-0.2955217974813547	-0.20385542493692294	1.7202869789755264	-0.3038306906146833	-0.20466106271743453	1.6076322585327871	-0.3311779151391277	-0.2126472907110913	1.5704566808915228	-0.4250081109274011	-0.2037326485663693	1.5766733873679302	-0.4077824586540383	-0.1936259757401356	1.5997208971214527	-0.3146676327356893	-0.20109105367471555	1.8395134735890069	-0.40871986924911136	-0.193486444445901	1.721495106085976	-0.396065062587789	-0.19374473786425653	1.5993298803790033	-0.38488331233042505	-0.22152535512867494	1.5711816104092378	-0.40169613566253226	-0.21415472164153956	1.572050206054984	-0.38676892051623135	-0.18821011605418633	1.5941420411294036	-0.38163932816438023	-2.0810930652674404	1.9130195758288424	1.8008741628080502	-0.21209637702604747	2.0395401636497525	-0.3779867337148518	-0.20313767910855268	1.9780613142680592	-0.3081559159920972	-0.20913003423616974	1.9009159674196439	-0.2521781942010504	-0.2183417763530992	1.8338175793569496	-0.22757600203634876	-0.18871823116836955	1.9832271069494904	-0.4811226131314178	-0.19212029631045954	1.90540212442953	-0.491183665158849	-0.19938558773587425	1.8372617095054762	-0.4734048464922305
17	0.5666666666666667	-0.20710949729966177	1.8364734481425675	-0.351061350143271	-0.21207815823521073	1.8350543683670077	-0.29320839563988155	-0.20397225947972564	1.7161928636922557	-0.30302253018155756	-0.20466106271743453	1.6076322585327871	-0.3311779151391277	-0.2126472907110913	1.5704566808915228	-0.4250081109274011	-0.2037326485663693	1.5766733873679302	-0.4077824586540383	-0.1936259757401356	1.5997208971214527	-0.3146676327356893	-0.20122141479581854	1.8355793641316318	-0.40805374919984266	-0.1934802841820723	1.7184214004101281	-0.39571575650997715	-0.1926136713537057	1.5985892054057564	-0.3814778893967493	-0.22152535512867494	1.5711816104092378	-0.40169613566253226	-0.21127416780498487	1.5722677526920863	-0.38556644364326526	-0.18810636521008195	1.5936000865735398	-0.38149438317138756	-2.081046334647441	1.913164503053692	1.8007347693277211	-0.21390098164693896	2.0393764744857883	-0.3757604976860589	-0.20309225167992268	1.978096451478863	-0.30819926658167135	-0.2092426905310363	1.9022440279440078	-0.25248962963344185	-0.22072614547583314	1.833868498928863	-0.21999138929767006	-0.18879739249391791	1.9845565636701166	-0.481576244084183	-0.1916708891903548	1.903193232132335	-0.4879495654970118	-0.2013201171156092	1.8325461358538937	-0.46690979042929637
18	0.6	-0.20745764525270527	1.8343561169779994	-0.3504319579634532	-0.2112435459193304	1.8338300961407	-0.28951652094052427	-0.20300567745127418	1.7162985310060819	-0.2996846911312984	-0.20466106271743453	1.6076322585327871	-0.3311779151391277	-0.2126472907110913	1.5704566808915228	-0.4250081109274011	-0.2037326485663693	1.5766733873679302	-0.4077824586540383	-0.1936259757401356	1.5997208971214527	-0.3146676327356893	-0.20241593125999682	1.8357408090831597	-0.40265408149688964	-0.19548556572310188	1.7187961516959795	-0.3935572786851861	-0.19287061348298276	1.6000700462429185	-0.38132144506639826	-0.22152535512867494	1.5711816104092378	-0.40169613566253226	-0.2121720020539071	1.5719676883271256	-0.3889391903979549	-0.18829339598732436	1.5946855264735083	-0.38126810946337353	-2.0806807306440467	1.9132596959828043	1.8006071037955804	-0.2129454607758739	2.0392332194495353	-0.3724668238569815	-0.2038141862213385	1.977926531167311	-0.30285051619855924	-0.20926961516043432	1.9022744831583347	-0.25244158987885984	-0.21786477581492267	1.8338484465165819	-0.2186699017883435	-0.18972634984597278	1.984481488291299	-0.4762409545739658	-0.19268923841934088	1.903032377954969	-0.4824354535717563	-0.20095599107648948	1.8333956982693438	-0.4669853399422797
19	0.6333333333333333	-0.20750597210243651	1.83574670690637	-0.35063887328182075	-0.21029619273026956	1.8326816030460613	-0.28605373972953996	-0.20422062707644756	1.7177025752631603	-0.30303445874301943	-0.20466106271743453	1.6076322585327871	-0.3311779151391277	-0.2126472907110913	1.5704566808915228	-0.4250081109274011	-0.2037326485663693	1.5766733873679302	-0.4077824586540383	-0.1936259757401356	1.5997208971214527	-0.3146676327356893	-0.20039422466224832	1.8370199283633322	-0.4049284375437486	-0.19528700211586342	1.7200202727308755	-0.39369895118447534	-0.1925109989338259	1.6003403062453418	-0.38205696873665274	-0.22152535512867494	1.5711816104092378	-0.40169613566253226	-0.21108811833759802	1.5720283117341918	-0.3856843214021755	-0.19021820427256628	1.5943871665102287	-0.37940621563493854	-2.0806968908661703	1.913149584524124	1.8006915447044756	-0.21274188761328122	2.0390315712861184	-0.3638247411975238	-0.20387633540764635	1.9792194874612985	-0.3032789795666561	-0.20932438198586756	1.8997404204488981	-0.2518339232130761	-0.21971737307521297	1.8324903307077878	-0.21617885905679476	-0.18977266913850938	1.984400742015918	-0.4762476079960273	-0.1935235929044271	1.9017393539616712	-0.4853405297755006	-0.20203035736347866	1.8306777727859513	-0.4609363159693313
